<svg width="40" height="40" viewBox="0 0 40 40" fill="none" xmlns="http://www.w3.org/2000/svg">
<path d="M24.0667 31.7501L26.6 34.2835L31.6667 29.2168" stroke="#3D64FD" stroke-width="2.5" stroke-linecap="round" stroke-linejoin="round"/>
<path d="M20.2669 18.1171C20.1003 18.1004 19.9003 18.1004 19.7169 18.1171C15.7503 17.9837 12.6003 14.7337 12.6003 10.7337C12.5836 6.65041 15.9003 3.33374 19.9836 3.33374C24.0669 3.33374 27.3836 6.65041 27.3836 10.7337C27.3836 14.7337 24.2169 17.9837 20.2669 18.1171Z" stroke="#3D64FD" stroke-width="2.5" stroke-linecap="round" stroke-linejoin="round"/>
<path d="M19.9832 36.3499C16.9498 36.3499 13.9332 35.5832 11.6332 34.0499C7.59982 31.3499 7.59982 26.9499 11.6332 24.2666C16.2165 21.1999 23.7332 21.1999 28.3165 24.2666" stroke="#3D64FD" stroke-width="2.5" stroke-linecap="round" stroke-linejoin="round"/>
</svg>
